<?xml version="1.0" standalone="no"?>
<!DOCTYPE svg PUBLIC "-//W3C//DTD SVG 20010904//EN"
 "http://www.w3.org/TR/2001/REC-SVG-20010904/DTD/svg10.dtd">
<svg version="1.0" xmlns="http://www.w3.org/2000/svg"
 width="500.000000pt" height="280.000000pt" viewBox="0 0 500.000000 280.000000"
 preserveAspectRatio="xMidYMid meet">

<g transform="translate(0.000000,280.000000) scale(0.100000,-0.100000)"
fill="#000000" stroke="none">
<path d="M801 2265 c-18 -8 -40 -15 -48 -15 -23 0 -171 -68 -217 -99 -63 -44
-184 -159 -227 -217 -35 -48 -109 -182 -109 -199 0 -4 -6 -21 -14 -38 -38 -85
-72 -366 -46 -382 5 -3 10 -25 10 -47 0 -68 29 -166 81 -275 42 -86 65 -119
149 -210 56 -59 119 -118 142 -131 23 -12 49 -29 58 -37 9 -8 20 -15 23 -15 4
0 26 -8 50 -19 110 -48 92 -43 247 -71 102 -18 264 2 380 47 117 46 221 114
302 199 l82 84 1506 2 1505 3 13 75 c7 41 19 104 27 140 8 36 19 98 25 139 11
80 18 118 27 141 6 14 18 79 72 370 12 63 26 130 32 147 6 18 9 42 7 53 l-3
20 -1596 0 -1596 0 -95 92 c-114 111 -147 137 -213 167 -177 81 -191 84 -375
88 -131 3 -172 0 -199 -12z m359 -195 c108 -36 107 -46 -7 -52 -197 -11 -363
-95 -521 -263 -45 -48 -84 -86 -86 -84 -12 11 59 148 110 215 80 104 159 160
279 196 72 21 135 18 225 -12z m-500 -77 c0 -4 -9 -16 -19 -27 -40 -42 -99
-183 -130 -306 -30 -121 -31 -128 -22 -245 5 -66 15 -142 21 -168 7 -26 10
-50 7 -53 -6 -6 -51 75 -79 144 -26 61 -51 216 -43 266 19 128 41 186 104 270
46 62 161 147 161 119z m591 -38 c133 -28 260 -118 313 -222 32 -65 70 -182
61 -191 -4 -4 -12 1 -19 12 -73 122 -168 207 -302 272 -114 55 -184 73 -301
81 -124 8 -125 19 -3 42 30 6 64 13 75 15 44 8 107 5 176 -9z m109 -195 c50
-32 154 -152 189 -220 78 -149 89 -278 38 -428 -25 -73 -71 -147 -86 -137 -5
2 -2 28 6 57 21 81 18 286 -6 378 -21 83 -84 228 -128 293 -42 62 -45 67 -36
67 4 0 15 -5 23 -10z m-999 -297 c42 -205 172 -387 368 -517 39 -25 71 -48 71
-51 0 -8 -65 8 -143 36 -256 92 -406 357 -337 592 6 22 14 36 18 33 3 -4 14
-45 23 -93z m1125 -235 c-5 -79 -14 -128 -33 -181 -65 -182 -151 -277 -301
-331 -71 -25 -175 -36 -186 -18 -2 4 17 16 42 26 196 79 385 309 443 539 29
117 43 104 35 -35z m-972 -277 c68 -39 187 -78 280 -92 96 -14 187 -2 328 45
56 19 105 32 108 29 11 -10 -89 -84 -165 -122 -169 -82 -359 -76 -486 18 -43
31 -129 126 -129 142 0 14 9 11 64 -20z"/>
</g>
</svg>
